HIERARCHY
ROOT Hips
{
 OFFSET 0.000000 0.000000 0.000000
 CHANNELS 6 Xposition Yposition Zposition Yrotation Xrotation Zrotation
 JOINT Chest
 {
  OFFSET 0.000000 9.585900 0.002600
  CHANNELS 3 Yrotation Xrotation Zrotation
  JOINT Chest2
  {
   OFFSET 0.000000 9.601200 -0.005300
   CHANNELS 3 Yrotation Xrotation Zrotation
   JOINT Chest3
   {
    OFFSET 0.000000 9.561800 0.000000
    CHANNELS 3 Yrotation Xrotation Zrotation
    JOINT Chest4
    {
     OFFSET 0.000000 9.552100 0.000000
     CHANNELS 3 Yrotation Xrotation Zrotation
     JOINT Neck
     {
      OFFSET 0.000000 14.453000 0.000000
      CHANNELS 3 Yrotation Xrotation Zrotation
      JOINT Head
      {
       OFFSET 0.000000 8.936500 -0.011300
       CHANNELS 3 Yrotation Xrotation Zrotation
       End Site
       {
        OFFSET 0.000000 17.073600 -0.006000
       }
      }
     }
     JOINT RightCollar
     {
      OFFSET -2.921100 9.558500 0.000000
      CHANNELS 3 Yrotation Xrotation Zrotation
      JOINT RightShoulder
      {
       OFFSET -13.519700 0.000000 0.000000
       CHANNELS 3 Yrotation Xrotation Zrotation
       JOINT RightElbow
       {
        OFFSET 0.000000 -29.696600 0.000000
        CHANNELS 3 Yrotation Xrotation Zrotation
        JOINT RightWrist
        {
         OFFSET 0.000000 -24.004700 0.000000
         CHANNELS 3 Yrotation Xrotation Zrotation
         End Site
         {
          OFFSET 0.000000 -17.728500 0.000000
         }
        }
       }
      }
     }
     JOINT LeftCollar
     {
      OFFSET 2.921100 9.558500 0.000000
      CHANNELS 3 Yrotation Xrotation Zrotation
      JOINT LeftShoulder
      {
       OFFSET 13.519700 0.000000 0.000000
       CHANNELS 3 Yrotation Xrotation Zrotation
       JOINT LeftElbow
       {
        OFFSET 0.000000 -29.696600 0.000000
        CHANNELS 3 Yrotation Xrotation Zrotation
        JOINT LeftWrist
        {
         OFFSET 0.000000 -24.004700 0.000000
         CHANNELS 3 Yrotation Xrotation Zrotation
         End Site
         {
          OFFSET 0.000000 -17.728500 0.000000
         }
        }
       }
      }
     }
    }
   }
  }
 }
 JOINT RightHip
 {
  OFFSET -7.771700 -0.012900 -0.001300
  CHANNELS 3 Yrotation Xrotation Zrotation
  JOINT RightKnee
  {
   OFFSET 0.000000 -40.869800 0.001200
   CHANNELS 3 Yrotation Xrotation Zrotation
   JOINT RightAnkle
   {
    OFFSET 0.000000 -39.717900 0.002100
    CHANNELS 3 Yrotation Xrotation Zrotation
    JOINT RightToe
    {
     OFFSET 0.000000 -4.965400 11.033500
     CHANNELS 3 Yrotation Xrotation Zrotation
     End Site
     {
      OFFSET 0.000000 -1.423100 5.872300
     }
    }
   }
  }
 }
 JOINT LeftHip
 {
  OFFSET 7.771700 -0.012900 -0.001300
  CHANNELS 3 Yrotation Xrotation Zrotation
  JOINT LeftKnee
  {
   OFFSET 0.000000 -40.869800 0.001200
   CHANNELS 3 Yrotation Xrotation Zrotation
   JOINT LeftAnkle
   {
    OFFSET 0.000000 -39.717900 0.002100
    CHANNELS 3 Yrotation Xrotation Zrotation
    JOINT LeftToe
    {
     OFFSET 0.000000 -4.965400 11.033500
     CHANNELS 3 Yrotation Xrotation Zrotation
     End Site
     {
      OFFSET 0.000000 -1.423100 5.872300
     }
    }
   }
  }
 }
}
MOTION
Frames: 13
Frame Time: 0.008333
0.000000 85.388000 0.000000 0.000000 -5.767877 0.000000 0.000000 11.653817 0.000000 0.000000 -5.885947 0.000000 0.000000 -0.000000 0.000000 0.000000 -0.000000 0.000000 0.000000 12.528835 0.000000 0.000000 0.711642 0.000000 0.000000 -0.000000 0.000000 0.000000 0.000000 -90.000000 0.000000 -2.309062 0.000000 0.000000 2.309062 0.000000 0.000000 -0.000000 0.000000 0.000000 -0.000000 90.000000 0.000000 -2.309062 0.000000 0.000000 2.309062 0.000000 0.000000 8.520406 0.000000 0.000000 1.905762 0.000000 -0.000000 -4.658285 0.000000 0.000000 -0.000000 0.000000 0.000000 8.520406 0.000000 0.000000 1.905762 0.000000 -0.000000 -4.658285 0.000000 0.000000 -0.000000 0.000000
3.927876 49.987106 43.414014 172.181847 -31.340345 -6.413951 7.209109 18.898845 7.013465 0.802183 2.415777 0.612498 1.363264 4.144435 1.133071 6.062801 16.264146 5.109681 -2.933362 15.637855 0.413056 -5.616664 -6.681113 1.832241 0.226306 -3.411279 -4.118243 9.572780 -16.389826 -11.123537 116.203511 -80.413675 -130.446195 -2.151669 -2.912436 15.083936 -13.780461 -3.774520 0.304354 -3.595208 -21.580850 3.467318 111.072124 -81.422501 -100.508197 32.507695 4.667280 -21.437769 -0.976667 -49.762279 10.025123 -94.450176 85.231103 -82.869764 -1.117229 -9.909525 -5.165427 -0.262283 0.894618 -0.116510 -10.232361 -53.534666 18.280322 -149.271062 83.547523 -156.773488 -0.600883 -13.410877 6.850540 -0.236443 -0.567325 -0.166444
3.947561 49.989331 43.408294 172.086156 -31.415645 -6.396483 7.312244 19.001225 7.093522 0.819596 2.452927 0.615200 1.377106 4.188942 1.153672 6.106497 16.346031 5.143473 -2.893145 15.688990 0.396304 -5.533741 -6.588838 1.784056 0.289950 -3.344112 -4.103689 9.726557 -16.789397 -11.436167 113.679506 -80.732365 -128.077373 -2.183509 -2.916590 14.721531 -13.948554 -3.683088 0.331250 -3.891690 -22.210749 3.619770 106.987200 -82.240743 -95.921214 32.338024 4.253564 -21.297111 -0.923877 -49.695876 10.082747 -94.279990 85.231647 -82.688311 -1.112883 -9.891582 -5.175159 -0.273389 0.888069 -0.121498 -10.141605 -53.474216 18.335799 -148.431652 83.462931 -155.948841 -0.508067 -13.382184 6.937418 -0.258224 -0.628118 -0.211603
3.971345 49.992641 43.399572 171.977911 -31.514550 -6.377282 7.422869 19.123317 7.185715 0.839011 2.541289 0.659480 1.386810 4.189030 1.133218 6.148661 16.433857 5.179348 -2.849555 15.747126 0.381438 -5.445005 -6.483487 1.737982 0.373817 -3.276415 -4.098312 9.884066 -17.176537 -11.758835 110.998808 -81.037605 -125.566807 -2.230283 -2.948779 14.360160 -14.114812 -3.610965 0.341196 -4.212970 -22.820767 3.810031 101.792185 -83.039115 -90.212142 32.143981 3.831707 -21.128870 -0.863203 -49.608329 10.146578 -94.146093 85.232530 -82.540839 -1.100411 -9.864328 -5.184507 -0.303130 0.871886 -0.131392 -10.031587 -53.382117 18.429222 -147.290075 83.356491 -154.845449 -0.440279 -13.368113 7.018507 -0.277424 -0.671060 -0.192047
3.999751 49.994130 43.393196 171.879821 -31.598044 -6.378531 7.522937 19.234642 7.295189 0.850584 2.593759 0.682691 1.404857 4.226608 1.134569 6.188282 16.523697 5.214576 -2.800627 15.815876 0.373687 -5.348547 -6.358145 1.702838 0.475120 -3.211151 -4.096204 10.049536 -17.548790 -12.093451 108.135295 -81.332107 -122.887410 -2.295833 -3.017218 13.997589 -14.280867 -3.563280 0.336872 -4.553406 -23.400814 4.039450 95.149662 -83.765195 -83.054427 31.924922 3.416984 -20.910955 -0.822991 -49.535697 10.235535 -94.069830 85.223075 -82.451803 -1.044742 -9.865799 -5.190806 -0.344512 0.890355 -0.147642 -9.985763 -53.295169 18.575471 -146.230890 83.257991 -153.841939 -0.349186 -13.356093 7.103929 -0.316514 -0.710256 -0.203676
4.027121 49.992952 43.389063 171.831192 -31.655637 -6.391188 7.572645 19.331741 7.385201 0.862262 2.628815 0.692035 1.423377 4.280647 1.149659 6.227142 16.612222 5.248313 -2.747651 15.896519 0.377408 -5.248411 -6.210436 1.687210 0.584854 -3.145137 -4.085673 10.227274 -17.909857 -12.441903 105.027214 -81.622673 -119.975501 -2.371458 -3.126204 13.635227 -14.449221 -3.529667 0.331092 -4.907682 -23.951679 4.297000 86.874277 -84.350303 -74.273358 31.680473 3.021557 -20.618059 -0.802531 -49.489317 10.317784 -93.999918 85.188543 -82.369031 -1.053871 -9.845176 -5.202704 -0.338021 0.881055 -0.138339 -9.987767 -53.233327 18.718390 -145.285684 83.165477 -152.959844 -0.297612 -13.356872 7.191519 -0.332363 -0.724958 -0.214188
4.058332 49.994463 43.380816 171.681785 -31.754269 -6.364947 7.721980 19.456282 7.489536 0.873534 2.664405 0.701404 1.441162 4.335508 1.164728 6.262422 16.702224 5.281116 -2.692533 15.982933 0.391255 -5.147819 -6.051690 1.689492 0.697171 -3.079241 -4.062087 10.423723 -18.264383 -12.802688 101.619558 -81.909404 -116.776412 -2.445178 -3.268037 13.286796 -14.617459 -3.502904 0.329912 -5.260520 -24.477459 4.572497 77.259236 -84.718939 -64.182333 31.409569 2.660455 -20.240820 -0.723970 -49.409591 10.403302 -93.770911 85.190758 -82.111517 -1.050380 -9.793974 -5.236676 -0.354221 0.862246 -0.139612 -9.908962 -53.126555 18.882988 -144.397738 83.067458 -152.136676 -0.260000 -13.352687 7.271278 -0.342121 -0.761233 -0.221366
4.086881 49.995900 43.371902 171.601270 -31.847375 -6.358735 7.808539 19.581719 7.570991 0.883651 2.700907 0.711098 1.457094 4.391676 1.180139 6.289854 16.795257 5.314013 -2.635225 16.066469 0.409516 -5.044827 -5.898048 1.699267 0.808637 -3.014371 -4.033040 10.649385 -18.620726 -13.171250 97.801159 -82.184475 -113.178317 -2.517303 -3.429804 12.960352 -14.780631 -3.483213 0.331977 -5.579683 -24.978996 4.853164 67.282988 -84.825616 -53.789170 31.123195 2.347496 -19.805262 -0.687959 -49.327967 10.483930 -93.707960 85.166256 -82.037461 -1.052419 -9.765888 -5.251500 -0.351691 0.853484 -0.140827 -9.872228 -53.026254 19.024638 -143.571309 82.975678 -151.375252 -0.240357 -13.337756 7.343417 -0.336686 -0.801116 -0.228852
4.112415 49.996835 43.364193 171.559150 -31.927667 -6.362496 7.856160 19.701809 7.633524 0.895994 2.694951 0.703541 1.466915 4.487655 1.213915 6.307033 16.887113 5.346244 -2.574587 16.143076 0.427523 -4.935968 -5.757393 1.707782 0.915776 -2.943643 -4.003596 10.907737 -18.987119 -13.544577 93.460319 -82.434230 -109.060713 -2.585881 -3.596251 12.649272 -14.935038 -3.465757 0.337820 -5.840952 -25.454705 5.125939 58.114830 -84.686805 -44.276541 30.838240 2.069929 -19.341222 -0.683112 -49.256802 10.555769 -93.723822 85.139961 -82.054075 -1.047476 -9.732251 -5.258998 -0.361624 0.837077 -0.144294 -9.858251 -52.938677 19.142485 -142.799491 82.892316 -150.663075 -0.213044 -13.325048 7.398409 -0.339612 -0.825572 -0.215513
4.136359 49.996863 43.360154 171.532362 -31.985923 -6.381351 7.888528 19.803906 7.693317 0.900627 2.749586 0.722157 1.477290 4.519539 1.218235 6.312729 16.976153 5.375687 -2.512103 16.211177 0.443183 -4.823208 -5.632662 1.711934 1.015164 -2.866818 -3.971189 11.187465 -19.367188 -13.921386 88.523136 -82.639375 -104.332712 -2.647613 -3.753164 12.350820 -15.075841 -3.447856 0.350102 -6.056295 -25.899457 5.387384 50.417645 -84.366077 -36.285085 30.566583 1.803036 -18.864779 -0.698411 -49.206994 10.632558 -93.689265 85.121181 -82.013528 -1.052131 -9.687711 -5.272725 -0.360297 0.815584 -0.144573 -9.868931 -52.871952 19.254171 -142.265026 82.833927 -150.163086 -0.208091 -13.320346 7.427004 -0.332332 -0.832589 -0.199117
4.156413 49.995255 43.361217 171.508413 -32.013519 -6.402697 7.911658 19.878371 7.743532 0.902299 2.803484 0.738390 1.486108 4.549689 1.223450 6.308796 17.064113 5.401818 -2.451154 16.271474 0.456097 -4.712623 -5.522398 1.712043 1.103302 -2.791503 -3.934523 11.473426 -19.764316 -14.300842 82.985681 -82.778773 -98.974027 -2.701857 -3.887939 12.067073 -15.203103 -3.433970 0.372861 -6.254153 -26.304368 5.635283 44.247375 -83.936192 -29.832110 30.317819 1.532750 -18.392839 -0.735666 -49.193228 10.715034 -93.640337 85.110663 -81.949404 -1.101592 -9.616039 -5.322066 -0.326717 0.789889 -0.126550 -9.883458 -52.840059 19.353084 -141.806364 82.786440 -149.728047 -0.185871 -13.316647 7.453118 -0.336635 -0.832464 -0.190793
4.170423 49.997741 43.357733 171.500928 -32.076067 -6.418072 7.918227 19.992954 7.779248 0.905491 2.835696 0.746356 1.490845 4.599354 1.236161 6.298843 17.150900 5.424612 -2.393162 16.326930 0.467160 -4.607075 -5.421088 1.709903 1.177686 -2.719801 -3.891694 11.757955 -20.177719 -14.684775 76.956464 -82.836856 -93.082926 -2.743048 -3.993943 11.792647 -15.323484 -3.423754 0.408249 -6.450132 -26.662448 5.869357 39.302683 -83.452438 -24.591718 30.100985 1.244221 -17.942810 -0.746964 -49.130707 10.747657 -93.558869 85.114710 -81.849733 -1.114474 -9.579097 -5.347713 -0.322400 0.766129 -0.122893 -9.864123 -52.779914 19.396662 -141.175215 82.723218 -149.121504 -0.105670 -13.282307 7.491663 -0.368908 -0.846685 -0.188031
4.175680 50.000192 43.355860 171.499968 -32.129791 -6.416032 7.906583 20.100093 7.786876 0.920836 2.827748 0.746694 1.492851 4.623797 1.242257 6.279610 17.293733 5.467741 -2.337942 16.380754 0.477509 -4.506445 -5.322742 1.707465 1.239740 -2.645614 -3.841054 12.037725 -20.603650 -15.072144 70.598141 -82.792693 -86.822431 -2.766401 -4.080695 11.520175 -15.439531 -3.409469 0.453498 -6.648218 -26.975123 6.090615 35.177546 -82.945406 -20.153061 29.912927 0.914047 -17.533806 -0.755575 -49.077884 10.756892 -93.494391 85.124973 -81.779290 -1.145005 -9.543878 -5.374830 -0.302656 0.743348 -0.112640 -9.833745 -52.737059 19.405417 -140.202761 82.635692 -148.196102 0.064672 -13.206236 7.554164 -0.426475 -0.909131 -0.208411
